<svg width="103" height="24" viewBox="0 0 103 24" fill="none" xmlns="http://www.w3.org/2000/svg">
<path d="M97.92 2.04783L93.3495 9.96H102.24V14.04H93.3495L97.92 21.9522L94.3712 24L90.24 16.8482L86.1088 24L82.56 21.9522L87.1305 14.04H78.24V9.96H87.1305L82.56 2.04783L86.1088 0L90.24 7.15179L94.3712 0L97.92 2.04783Z" fill="#0F0F0F"/>
<path d="M11.2498 23.617V20.8404H11.0905C10.4849 22.7553 8.70027 24 6.5013 24C2.29458 24 0 20.8723 0 15.2553C0 9.67021 2.29458 6.57447 6.5013 6.57447C8.70027 6.57447 10.4849 7.78723 11.0905 9.70213H11.2498V6.95745H15.329V23.617H11.2498ZM7.80794 20.617C9.75195 20.617 11.2498 19.6596 11.2498 17.9043V12.6064C11.2498 10.9787 9.75195 9.92553 7.80794 9.92553C5.6727 9.92553 4.27046 11.4574 4.27046 13.8511V16.7234C4.27046 19.117 5.6727 20.617 7.80794 20.617Z" fill="#0F0F0F"/>
<path d="M22.041 23.617H17.9617V6.95745H22.041V10.4043H22.2003C22.6146 8.64894 23.9213 6.95745 26.5983 6.95745H27.4906V10.8191H26.2158C23.4432 10.8191 22.041 11.5851 22.041 13.4043V23.617Z" fill="#0F0F0F"/>
<path d="M35.2908 24C30.3192 24 27.6103 20.5851 27.6103 15.2553C27.6103 9.92553 30.3829 6.57447 35.2908 6.57447C38.6371 6.57447 40.836 8.1383 41.824 10.7872L38.4777 12.2872C38.0953 10.883 37.0755 9.8617 35.2908 9.8617C32.9962 9.8617 31.8808 11.4574 31.8808 13.7872V16.8191C31.8808 19.1489 32.9962 20.7128 35.2908 20.7128C37.2348 20.7128 38.1909 19.5957 38.7964 18.0957L41.9196 19.5957C40.8042 22.5319 38.5096 24 35.2908 24Z" fill="#0F0F0F"/>
<path d="M53.319 23.617V20.8404H53.1597C52.5542 22.7553 50.7695 24 48.5705 24C44.3638 24 42.0692 20.8723 42.0692 15.2553C42.0692 9.67021 44.3638 6.57447 48.5705 6.57447C50.7695 6.57447 52.5542 7.78723 53.1597 9.70213H53.319V6.95745H57.3983V23.617H53.319ZM49.8771 20.617C51.8212 20.617 53.319 19.6596 53.319 17.9043V12.6064C53.319 10.9787 51.8212 9.92553 49.8771 9.92553C47.7419 9.92553 46.3397 11.4574 46.3397 13.8511V16.7234C46.3397 19.117 47.7419 20.617 49.8771 20.617Z" fill="#0F0F0F"/>
<path d="M60.0309 23.617V0H64.1102V9.70213H64.2377C64.8432 7.78723 66.6279 6.57447 68.8268 6.57447C73.0654 6.57447 75.36 9.67021 75.36 15.2553C75.36 20.8723 73.0654 24 68.8268 24C66.6279 24 64.8751 22.7553 64.2377 20.8404H64.1102V23.617H60.0309ZM67.5202 20.617C69.6554 20.617 71.0895 19.117 71.0895 16.7234V13.8511C71.0895 11.4574 69.6554 9.92553 67.5202 9.92553C65.5762 9.92553 64.1102 10.9787 64.1102 12.6064V17.9043C64.1102 19.6596 65.5762 20.617 67.5202 20.617Z" fill="#0F0F0F"/>
</svg>
