<svg xmlns="http://www.w3.org/2000/svg" width="819" height="897" viewBox="0 0 819 897">
  <path d="M 441.00 718.00 L 441.00 831.00 L 62.07 831.00 L 62.29 772.25 L 62.50 713.50 L 85.25 713.23 L 108.00 712.96 L 108.00 186.00 L 63.26 186.00 L 62.64 182.25 C61.82,177.29 61.82,78.61 62.64,72.64 L 63.27 68.00 L 226.00 68.00 L 226.25 392.75 L 226.50 717.50 L 248.93 717.81 C261.27,717.99 272.40,717.86 273.68,717.54 L 276.00 716.96 L 276.00 68.00 L 441.00 68.00 L 441.00 180.74 L 436.84 181.41 C434.55,181.78 424.53,182.04 414.59,182.00 C404.64,181.95 395.94,181.94 395.25,181.96 C394.26,181.99 394.00,202.90 394.00,283.07 L 394.00 384.15 L 450.25 383.73 C511.08,383.28 511.26,383.26 528.95,377.36 C562.24,366.27 587.29,341.03 595.99,309.83 C602.17,287.70 600.18,258.96 591.08,238.67 C577.56,208.56 547.01,189.15 504.20,183.49 C497.98,182.67 490.90,182.00 488.45,182.00 L 484.00 182.00 L 484.00 68.00 L 497.85 68.00 C529.54,68.00 565.68,72.85 590.87,80.49 C661.51,101.91 703.26,148.71 714.44,219.00 C720.04,254.19 717.89,290.64 708.58,318.48 C700.93,341.33 688.25,361.76 671.00,379.00 C658.27,391.72 650.19,397.88 634.74,406.64 C628.27,410.31 623.09,413.42 623.24,413.57 C623.38,413.71 627.10,415.25 631.50,417.00 C663.91,429.86 696.53,454.01 716.42,479.89 C744.77,516.76 757.99,557.53 757.99,608.00 C757.99,635.30 753.16,668.04 746.04,689.00 C740.09,706.53 735.88,715.82 727.50,729.91 C701.08,774.35 654.97,805.82 594.20,820.90 C567.64,827.49 547.18,829.92 511.75,830.68 L 484.00 831.29 L 484.00 718.27 L 500.75 717.58 C509.96,717.20 521.55,716.42 526.50,715.86 C592.96,708.22 632.14,672.78 637.21,615.70 C640.68,576.72 626.22,544.52 596.05,524.03 C577.26,511.27 550.10,502.25 520.93,499.07 C513.92,498.31 428.28,497.57 395.25,497.98 C394.26,498.00 394.00,520.68 394.00,608.00 L 394.00 718.00 Z" fill="rgb(77,138,225)"/>
</svg>
