<svg xmlns="http://www.w3.org/2000/svg" xmlns:xlink="http://www.w3.org/1999/xlink" width="96" zoomAndPan="magnify" viewBox="0 0 72 72" height="96" preserveAspectRatio="xMidYMid meet" version="1.0"><defs><clipPath id="b2d81494b9"><path d="M 30.339844 33 L 32 33 L 32 34.675781 L 30.339844 34.675781 Z M 30.339844 33 " clip-rule="nonzero"/></clipPath><clipPath id="45a218c81d"><path d="M 31 33 L 32.589844 33 L 32.589844 34.675781 L 31 34.675781 Z M 31 33 " clip-rule="nonzero"/></clipPath><clipPath id="d2e608f9b9"><path d="M 30.339844 33 L 32 33 L 32 34 L 30.339844 34 Z M 30.339844 33 " clip-rule="nonzero"/></clipPath><clipPath id="335e315603"><path d="M 30.339844 32.425781 L 32 32.425781 L 32 34 L 30.339844 34 Z M 30.339844 32.425781 " clip-rule="nonzero"/></clipPath><clipPath id="7624752436"><path d="M 31 32.425781 L 32.589844 32.425781 L 32.589844 34 L 31 34 Z M 31 32.425781 " clip-rule="nonzero"/></clipPath><clipPath id="b310753b44"><path d="M 30.339844 32.425781 L 32.589844 32.425781 L 32.589844 34.675781 L 30.339844 34.675781 Z M 30.339844 32.425781 " clip-rule="nonzero"/></clipPath><clipPath id="808df6fc92"><path d="M 30.339844 33 L 32 33 L 32 34.675781 L 30.339844 34.675781 Z M 30.339844 33 " clip-rule="nonzero"/></clipPath><clipPath id="9df09f354a"><path d="M 31 32.425781 L 32.589844 32.425781 L 32.589844 34 L 31 34 Z M 31 32.425781 " clip-rule="nonzero"/></clipPath><clipPath id="31848b383f"><path d="M 9 7 L 66 7 L 66 64 L 9 64 Z M 9 7 " clip-rule="nonzero"/></clipPath><clipPath id="20f6c0000d"><path d="M 38.410156 -7.292969 L 68.480469 9.617188 L 31.34375 75.640625 L 1.273438 58.726562 Z M 38.410156 -7.292969 " clip-rule="nonzero"/></clipPath><clipPath id="93a74c09ff"><path d="M 38.441406 -7.347656 L 68.511719 9.566406 L 31.007812 76.242188 L 0.9375 59.328125 Z M 38.441406 -7.347656 " clip-rule="nonzero"/></clipPath></defs><g clip-path="url(#b2d81494b9)"><path fill="#ffffff" d="M 30.984375 34.402344 C 30.960938 34.425781 30.9375 34.445312 30.921875 34.457031 C 30.890625 34.476562 30.871094 34.5 30.851562 34.53125 C 30.847656 34.515625 30.847656 34.5 30.855469 34.484375 C 30.820312 34.503906 30.789062 34.527344 30.769531 34.574219 C 30.773438 34.570312 30.746094 34.53125 30.742188 34.523438 C 30.738281 34.5 30.742188 34.484375 30.75 34.464844 C 30.714844 34.46875 30.683594 34.511719 30.65625 34.53125 C 30.566406 34.589844 30.457031 34.59375 30.367188 34.652344 C 30.414062 34.617188 30.449219 34.585938 30.480469 34.535156 C 30.515625 34.480469 30.539062 34.417969 30.5625 34.359375 C 30.566406 34.339844 30.570312 34.320312 30.574219 34.300781 C 30.566406 34.308594 30.554688 34.3125 30.546875 34.316406 C 30.535156 34.324219 30.519531 34.332031 30.5 34.335938 C 30.492188 34.335938 30.464844 34.324219 30.457031 34.328125 C 30.46875 34.320312 30.484375 34.316406 30.5 34.308594 C 30.515625 34.296875 30.527344 34.277344 30.535156 34.261719 C 30.570312 34.207031 30.589844 34.160156 30.617188 34.117188 C 30.617188 34.117188 30.617188 34.117188 30.617188 34.113281 C 30.621094 34.113281 30.621094 34.113281 30.621094 34.113281 C 30.652344 34.066406 30.683594 34.03125 30.742188 34.011719 C 30.824219 33.976562 30.921875 33.996094 30.988281 34.0625 C 31.078125 34.15625 31.078125 34.308594 30.988281 34.398438 C 30.984375 34.402344 30.984375 34.402344 30.984375 34.402344 " fill-opacity="1" fill-rule="nonzero"/><path fill="#231f20" d="M 30.984375 34.402344 L 30.96875 34.390625 C 30.949219 34.410156 30.925781 34.429688 30.910156 34.4375 C 30.878906 34.460938 30.855469 34.488281 30.835938 34.523438 L 30.851562 34.53125 L 30.871094 34.527344 C 30.867188 34.523438 30.867188 34.519531 30.867188 34.515625 C 30.867188 34.507812 30.871094 34.5 30.875 34.492188 C 30.875 34.484375 30.875 34.476562 30.867188 34.46875 C 30.863281 34.464844 30.851562 34.460938 30.847656 34.464844 C 30.828125 34.476562 30.808594 34.488281 30.792969 34.503906 C 30.777344 34.519531 30.761719 34.539062 30.753906 34.566406 C 30.75 34.570312 30.75 34.578125 30.753906 34.582031 C 30.753906 34.585938 30.757812 34.589844 30.765625 34.59375 C 30.769531 34.59375 30.773438 34.59375 30.777344 34.589844 C 30.785156 34.589844 30.785156 34.585938 30.789062 34.582031 C 30.789062 34.578125 30.789062 34.574219 30.789062 34.574219 C 30.789062 34.570312 30.789062 34.566406 30.789062 34.566406 C 30.789062 34.5625 30.789062 34.5625 30.785156 34.558594 C 30.785156 34.554688 30.78125 34.550781 30.78125 34.546875 C 30.777344 34.539062 30.769531 34.53125 30.769531 34.527344 C 30.765625 34.523438 30.765625 34.519531 30.761719 34.519531 C 30.761719 34.515625 30.761719 34.515625 30.761719 34.515625 L 30.757812 34.519531 L 30.761719 34.515625 L 30.757812 34.519531 L 30.761719 34.515625 C 30.761719 34.511719 30.761719 34.503906 30.761719 34.5 C 30.761719 34.496094 30.761719 34.492188 30.761719 34.488281 C 30.761719 34.484375 30.765625 34.480469 30.769531 34.476562 C 30.773438 34.472656 30.773438 34.460938 30.769531 34.457031 C 30.765625 34.449219 30.757812 34.445312 30.75 34.445312 C 30.738281 34.449219 30.726562 34.453125 30.714844 34.457031 C 30.703125 34.464844 30.6875 34.476562 30.675781 34.488281 C 30.664062 34.5 30.652344 34.507812 30.644531 34.515625 C 30.605469 34.542969 30.554688 34.558594 30.503906 34.574219 C 30.453125 34.589844 30.402344 34.605469 30.355469 34.636719 L 30.378906 34.667969 C 30.402344 34.652344 30.421875 34.632812 30.441406 34.613281 C 30.460938 34.59375 30.480469 34.574219 30.496094 34.546875 C 30.53125 34.488281 30.554688 34.425781 30.578125 34.363281 C 30.585938 34.34375 30.589844 34.324219 30.589844 34.304688 C 30.59375 34.296875 30.589844 34.289062 30.582031 34.285156 C 30.574219 34.28125 30.566406 34.28125 30.5625 34.285156 C 30.554688 34.289062 30.546875 34.296875 30.539062 34.300781 C 30.527344 34.308594 30.511719 34.3125 30.5 34.316406 L 30.5 34.320312 L 30.5 34.316406 L 30.5 34.320312 L 30.5 34.316406 C 30.5 34.316406 30.5 34.3125 30.496094 34.3125 C 30.492188 34.3125 30.488281 34.3125 30.480469 34.308594 C 30.476562 34.308594 30.46875 34.308594 30.460938 34.308594 C 30.460938 34.308594 30.457031 34.308594 30.453125 34.308594 C 30.453125 34.308594 30.449219 34.308594 30.445312 34.3125 C 30.4375 34.320312 30.433594 34.332031 30.4375 34.339844 C 30.445312 34.347656 30.457031 34.351562 30.464844 34.347656 C 30.46875 34.34375 30.476562 34.339844 30.484375 34.335938 C 30.492188 34.332031 30.5 34.328125 30.507812 34.324219 C 30.527344 34.308594 30.542969 34.289062 30.554688 34.273438 C 30.585938 34.21875 30.609375 34.167969 30.632812 34.128906 C 30.636719 34.125 30.636719 34.125 30.636719 34.125 L 30.617188 34.113281 L 30.632812 34.125 C 30.632812 34.125 30.636719 34.125 30.636719 34.125 L 30.636719 34.121094 C 30.652344 34.101562 30.667969 34.082031 30.683594 34.066406 C 30.699219 34.050781 30.722656 34.039062 30.746094 34.027344 L 30.742188 34.011719 L 30.726562 33.996094 C 30.71875 34.003906 30.71875 34.011719 30.722656 34.019531 C 30.730469 34.027344 30.738281 34.03125 30.746094 34.027344 C 30.773438 34.019531 30.796875 34.015625 30.824219 34.015625 C 30.878906 34.015625 30.933594 34.035156 30.972656 34.078125 C 31.015625 34.121094 31.035156 34.175781 31.035156 34.230469 C 31.035156 34.289062 31.015625 34.34375 30.972656 34.386719 C 30.972656 34.386719 30.972656 34.386719 30.96875 34.390625 L 30.984375 34.402344 L 30.996094 34.417969 C 30.996094 34.417969 31 34.414062 31 34.414062 C 31.050781 34.363281 31.074219 34.296875 31.074219 34.230469 C 31.074219 34.167969 31.050781 34.101562 31 34.050781 C 30.953125 34 30.886719 33.976562 30.824219 33.976562 C 30.792969 33.976562 30.761719 33.980469 30.734375 33.992188 L 30.742188 34.011719 L 30.753906 34.023438 C 30.761719 34.019531 30.761719 34.007812 30.757812 34 C 30.75 33.992188 30.742188 33.988281 30.734375 33.992188 C 30.703125 34.003906 30.679688 34.019531 30.660156 34.035156 C 30.636719 34.054688 30.621094 34.078125 30.605469 34.101562 L 30.621094 34.113281 L 30.605469 34.101562 C 30.605469 34.101562 30.605469 34.101562 30.601562 34.101562 C 30.601562 34.105469 30.601562 34.105469 30.601562 34.105469 C 30.601562 34.105469 30.601562 34.109375 30.601562 34.109375 L 30.617188 34.117188 L 30.601562 34.109375 C 30.574219 34.148438 30.550781 34.199219 30.519531 34.25 C 30.511719 34.265625 30.5 34.28125 30.488281 34.292969 C 30.484375 34.292969 30.476562 34.296875 30.46875 34.300781 C 30.460938 34.304688 30.453125 34.308594 30.445312 34.3125 C 30.441406 34.316406 30.4375 34.320312 30.4375 34.324219 C 30.433594 34.328125 30.4375 34.335938 30.4375 34.339844 C 30.441406 34.34375 30.445312 34.347656 30.449219 34.347656 C 30.457031 34.351562 30.460938 34.347656 30.464844 34.347656 L 30.460938 34.339844 L 30.460938 34.347656 C 30.460938 34.347656 30.464844 34.347656 30.464844 34.347656 L 30.460938 34.339844 L 30.460938 34.347656 L 30.460938 34.34375 L 30.460938 34.347656 L 30.460938 34.34375 L 30.460938 34.347656 C 30.464844 34.347656 30.464844 34.347656 30.46875 34.347656 C 30.472656 34.347656 30.476562 34.351562 30.484375 34.351562 C 30.484375 34.351562 30.488281 34.351562 30.492188 34.351562 C 30.496094 34.355469 30.496094 34.355469 30.5 34.355469 C 30.5 34.355469 30.503906 34.355469 30.503906 34.355469 C 30.523438 34.351562 30.542969 34.34375 30.558594 34.335938 C 30.566406 34.328125 30.574219 34.324219 30.585938 34.316406 L 30.574219 34.300781 L 30.554688 34.296875 C 30.550781 34.316406 30.546875 34.335938 30.542969 34.351562 C 30.519531 34.410156 30.496094 34.472656 30.464844 34.523438 C 30.449219 34.550781 30.433594 34.570312 30.414062 34.585938 C 30.398438 34.601562 30.378906 34.621094 30.355469 34.636719 C 30.347656 34.644531 30.34375 34.65625 30.351562 34.664062 C 30.355469 34.671875 30.367188 34.675781 30.375 34.667969 C 30.417969 34.640625 30.464844 34.625 30.515625 34.609375 C 30.566406 34.59375 30.617188 34.578125 30.667969 34.546875 C 30.675781 34.542969 30.683594 34.535156 30.691406 34.527344 C 30.703125 34.519531 30.714844 34.507812 30.726562 34.5 C 30.730469 34.496094 30.734375 34.492188 30.738281 34.488281 C 30.746094 34.488281 30.75 34.488281 30.753906 34.484375 L 30.75 34.464844 L 30.734375 34.457031 C 30.730469 34.464844 30.726562 34.46875 30.726562 34.476562 C 30.722656 34.484375 30.722656 34.492188 30.722656 34.5 C 30.722656 34.511719 30.722656 34.519531 30.726562 34.527344 C 30.726562 34.53125 30.726562 34.53125 30.730469 34.535156 C 30.730469 34.539062 30.734375 34.542969 30.734375 34.546875 C 30.738281 34.554688 30.746094 34.5625 30.746094 34.566406 C 30.75 34.570312 30.75 34.574219 30.75 34.574219 L 30.75 34.578125 L 30.757812 34.574219 L 30.75 34.574219 L 30.75 34.578125 L 30.757812 34.574219 L 30.75 34.574219 L 30.765625 34.574219 L 30.75 34.574219 L 30.765625 34.574219 L 30.75 34.574219 L 30.769531 34.574219 L 30.753906 34.566406 C 30.75 34.570312 30.75 34.570312 30.75 34.574219 L 30.769531 34.574219 L 30.753906 34.566406 C 30.75 34.578125 30.753906 34.589844 30.765625 34.59375 C 30.773438 34.597656 30.785156 34.589844 30.789062 34.582031 C 30.796875 34.558594 30.808594 34.546875 30.820312 34.53125 C 30.832031 34.519531 30.847656 34.511719 30.863281 34.5 L 30.855469 34.484375 L 30.835938 34.476562 C 30.832031 34.488281 30.828125 34.5 30.828125 34.515625 C 30.828125 34.523438 30.832031 34.53125 30.832031 34.539062 C 30.835938 34.546875 30.84375 34.550781 30.851562 34.550781 C 30.855469 34.554688 30.863281 34.550781 30.867188 34.542969 C 30.886719 34.511719 30.90625 34.492188 30.933594 34.472656 C 30.949219 34.460938 30.972656 34.441406 30.996094 34.417969 L 30.984375 34.402344 L 30.996094 34.417969 L 30.984375 34.402344 " fill-opacity="1" fill-rule="nonzero"/></g><g clip-path="url(#45a218c81d)"><path fill="#ffffff" d="M 31.648438 33.441406 C 31.675781 33.460938 31.878906 33.308594 31.902344 33.335938 C 32.132812 33.570312 31.960938 34.121094 31.730469 34.355469 C 31.597656 34.492188 31.410156 34.550781 31.234375 34.523438 C 31.253906 34.507812 31.273438 34.488281 31.292969 34.46875 C 31.488281 34.269531 31.480469 34.050781 31.34375 33.910156 C 31.316406 33.882812 31.339844 33.804688 31.304688 33.792969 L 31.648438 33.441406 " fill-opacity="1" fill-rule="nonzero"/><path fill="#231f20" d="M 31.648438 33.441406 L 31.636719 33.457031 C 31.640625 33.460938 31.644531 33.460938 31.644531 33.460938 C 31.648438 33.460938 31.652344 33.460938 31.65625 33.460938 C 31.660156 33.460938 31.664062 33.460938 31.667969 33.460938 C 31.675781 33.460938 31.683594 33.457031 31.695312 33.453125 C 31.710938 33.445312 31.730469 33.433594 31.75 33.425781 C 31.777344 33.40625 31.808594 33.390625 31.835938 33.375 C 31.851562 33.367188 31.863281 33.363281 31.875 33.359375 C 31.878906 33.355469 31.882812 33.355469 31.886719 33.355469 C 31.890625 33.351562 31.894531 33.351562 31.894531 33.351562 L 31.894531 33.347656 L 31.894531 33.351562 L 31.894531 33.347656 L 31.894531 33.351562 L 31.898438 33.34375 L 31.890625 33.351562 C 31.890625 33.351562 31.890625 33.351562 31.894531 33.351562 L 31.898438 33.34375 L 31.890625 33.351562 C 31.925781 33.386719 31.949219 33.429688 31.96875 33.480469 C 31.984375 33.53125 31.992188 33.589844 31.992188 33.652344 C 31.992188 33.773438 31.960938 33.90625 31.910156 34.03125 C 31.859375 34.152344 31.792969 34.265625 31.71875 34.339844 C 31.609375 34.453125 31.464844 34.507812 31.320312 34.507812 C 31.292969 34.507812 31.265625 34.507812 31.238281 34.503906 L 31.234375 34.523438 L 31.246094 34.539062 C 31.265625 34.523438 31.285156 34.503906 31.304688 34.484375 C 31.359375 34.429688 31.398438 34.371094 31.425781 34.316406 C 31.449219 34.257812 31.460938 34.203125 31.460938 34.148438 C 31.460938 34.101562 31.453125 34.054688 31.433594 34.011719 C 31.417969 33.96875 31.390625 33.929688 31.355469 33.898438 C 31.355469 33.894531 31.355469 33.894531 31.351562 33.890625 C 31.351562 33.886719 31.347656 33.875 31.347656 33.867188 C 31.347656 33.859375 31.347656 33.851562 31.347656 33.84375 C 31.347656 33.832031 31.34375 33.816406 31.339844 33.804688 C 31.339844 33.796875 31.335938 33.792969 31.332031 33.785156 C 31.324219 33.78125 31.320312 33.773438 31.3125 33.773438 L 31.304688 33.792969 L 31.320312 33.804688 L 31.660156 33.453125 L 31.648438 33.441406 L 31.636719 33.457031 L 31.648438 33.441406 L 31.632812 33.425781 L 31.292969 33.777344 C 31.285156 33.78125 31.285156 33.789062 31.285156 33.796875 C 31.289062 33.800781 31.292969 33.808594 31.296875 33.808594 C 31.300781 33.808594 31.300781 33.808594 31.300781 33.8125 C 31.300781 33.8125 31.304688 33.8125 31.304688 33.816406 C 31.304688 33.820312 31.308594 33.828125 31.308594 33.835938 C 31.308594 33.847656 31.308594 33.863281 31.3125 33.878906 C 31.3125 33.886719 31.3125 33.894531 31.316406 33.902344 C 31.320312 33.910156 31.324219 33.917969 31.328125 33.925781 C 31.359375 33.957031 31.382812 33.992188 31.398438 34.027344 C 31.414062 34.066406 31.425781 34.105469 31.425781 34.148438 C 31.425781 34.195312 31.414062 34.246094 31.390625 34.300781 C 31.367188 34.351562 31.328125 34.40625 31.277344 34.457031 C 31.261719 34.476562 31.242188 34.492188 31.222656 34.507812 C 31.21875 34.511719 31.214844 34.519531 31.21875 34.527344 C 31.21875 34.535156 31.226562 34.539062 31.234375 34.542969 C 31.261719 34.546875 31.292969 34.550781 31.320312 34.550781 C 31.472656 34.550781 31.628906 34.488281 31.746094 34.367188 C 31.824219 34.289062 31.894531 34.171875 31.945312 34.046875 C 31.996094 33.917969 32.03125 33.78125 32.03125 33.652344 C 32.03125 33.585938 32.023438 33.527344 32.003906 33.46875 C 31.984375 33.414062 31.957031 33.363281 31.917969 33.324219 C 31.914062 33.320312 31.910156 33.316406 31.90625 33.316406 C 31.902344 33.3125 31.898438 33.3125 31.894531 33.3125 C 31.882812 33.3125 31.875 33.316406 31.867188 33.320312 C 31.847656 33.324219 31.832031 33.335938 31.808594 33.347656 C 31.777344 33.363281 31.746094 33.382812 31.714844 33.398438 C 31.699219 33.40625 31.6875 33.410156 31.675781 33.417969 C 31.671875 33.417969 31.667969 33.421875 31.664062 33.421875 C 31.660156 33.421875 31.65625 33.421875 31.65625 33.421875 L 31.652344 33.429688 L 31.65625 33.425781 C 31.65625 33.421875 31.65625 33.421875 31.65625 33.421875 L 31.652344 33.429688 L 31.65625 33.425781 C 31.648438 33.417969 31.640625 33.421875 31.632812 33.425781 L 31.648438 33.441406 " fill-opacity="1" fill-rule="nonzero"/></g><g clip-path="url(#d2e608f9b9)"><path fill="#ffffff" d="M 31.695312 33.125 C 31.722656 33.152344 31.578125 33.359375 31.597656 33.390625 L 31.253906 33.742188 C 31.242188 33.703125 31.164062 33.726562 31.136719 33.699219 C 31 33.558594 30.785156 33.550781 30.589844 33.75 C 30.570312 33.769531 30.554688 33.789062 30.539062 33.808594 C 30.511719 33.628906 30.566406 33.4375 30.703125 33.300781 C 30.929688 33.066406 31.46875 32.890625 31.695312 33.125 " fill-opacity="1" fill-rule="nonzero"/></g><g clip-path="url(#335e315603)"><path fill="#231f20" d="M 31.695312 33.125 L 31.683594 33.136719 L 31.6875 33.132812 L 31.679688 33.136719 C 31.679688 33.136719 31.683594 33.136719 31.683594 33.136719 L 31.6875 33.132812 L 31.679688 33.136719 L 31.683594 33.132812 L 31.679688 33.132812 L 31.679688 33.136719 L 31.683594 33.132812 L 31.679688 33.132812 L 31.679688 33.136719 C 31.679688 33.136719 31.679688 33.144531 31.675781 33.152344 C 31.671875 33.164062 31.664062 33.183594 31.65625 33.203125 C 31.640625 33.234375 31.621094 33.269531 31.605469 33.300781 C 31.597656 33.316406 31.589844 33.332031 31.585938 33.34375 C 31.582031 33.351562 31.582031 33.359375 31.578125 33.363281 C 31.578125 33.371094 31.578125 33.375 31.578125 33.382812 C 31.578125 33.386719 31.578125 33.390625 31.578125 33.390625 C 31.578125 33.394531 31.578125 33.398438 31.582031 33.402344 L 31.597656 33.390625 L 31.585938 33.378906 L 31.242188 33.730469 L 31.253906 33.742188 L 31.273438 33.738281 C 31.269531 33.726562 31.265625 33.722656 31.261719 33.714844 C 31.253906 33.710938 31.25 33.707031 31.242188 33.707031 C 31.234375 33.703125 31.222656 33.699219 31.214844 33.699219 C 31.199219 33.695312 31.183594 33.695312 31.171875 33.695312 C 31.167969 33.691406 31.164062 33.691406 31.15625 33.691406 C 31.152344 33.6875 31.152344 33.6875 31.148438 33.683594 C 31.117188 33.648438 31.078125 33.625 31.035156 33.605469 C 30.996094 33.585938 30.949219 33.578125 30.902344 33.578125 C 30.851562 33.578125 30.796875 33.589844 30.742188 33.617188 C 30.683594 33.640625 30.628906 33.683594 30.574219 33.738281 C 30.558594 33.757812 30.539062 33.777344 30.523438 33.796875 L 30.539062 33.808594 L 30.558594 33.804688 C 30.554688 33.777344 30.550781 33.75 30.550781 33.722656 C 30.550781 33.574219 30.605469 33.425781 30.714844 33.3125 C 30.789062 33.238281 30.898438 33.167969 31.019531 33.117188 C 31.140625 33.066406 31.269531 33.035156 31.390625 33.035156 C 31.449219 33.035156 31.503906 33.042969 31.554688 33.058594 C 31.605469 33.078125 31.648438 33.101562 31.683594 33.136719 L 31.710938 33.109375 C 31.671875 33.070312 31.621094 33.039062 31.566406 33.023438 C 31.511719 33.003906 31.453125 32.996094 31.390625 32.996094 C 31.265625 32.996094 31.128906 33.027344 31.003906 33.082031 C 30.878906 33.132812 30.765625 33.207031 30.6875 33.285156 C 30.570312 33.40625 30.511719 33.5625 30.511719 33.722656 C 30.511719 33.75 30.515625 33.78125 30.519531 33.8125 C 30.519531 33.820312 30.527344 33.824219 30.535156 33.828125 C 30.542969 33.832031 30.550781 33.828125 30.554688 33.820312 C 30.570312 33.800781 30.585938 33.785156 30.601562 33.765625 C 30.65625 33.714844 30.707031 33.675781 30.757812 33.652344 C 30.808594 33.628906 30.855469 33.617188 30.902344 33.617188 C 30.945312 33.617188 30.984375 33.625 31.019531 33.640625 C 31.058594 33.65625 31.09375 33.679688 31.121094 33.710938 C 31.128906 33.71875 31.132812 33.722656 31.140625 33.726562 C 31.152344 33.730469 31.164062 33.734375 31.175781 33.734375 C 31.183594 33.734375 31.191406 33.734375 31.199219 33.738281 C 31.210938 33.738281 31.222656 33.738281 31.226562 33.742188 C 31.230469 33.742188 31.234375 33.746094 31.234375 33.746094 C 31.234375 33.746094 31.234375 33.746094 31.238281 33.75 C 31.238281 33.753906 31.242188 33.761719 31.25 33.761719 C 31.257812 33.761719 31.265625 33.761719 31.269531 33.757812 L 31.613281 33.40625 C 31.617188 33.398438 31.617188 33.386719 31.613281 33.378906 L 31.605469 33.386719 L 31.613281 33.382812 C 31.613281 33.382812 31.613281 33.382812 31.613281 33.378906 L 31.605469 33.386719 L 31.613281 33.382812 C 31.613281 33.382812 31.617188 33.375 31.617188 33.367188 C 31.621094 33.355469 31.632812 33.335938 31.640625 33.316406 C 31.65625 33.285156 31.675781 33.25 31.691406 33.21875 C 31.699219 33.203125 31.707031 33.1875 31.710938 33.171875 C 31.714844 33.167969 31.714844 33.160156 31.71875 33.152344 C 31.71875 33.148438 31.71875 33.140625 31.71875 33.136719 C 31.71875 33.132812 31.71875 33.128906 31.71875 33.121094 C 31.714844 33.117188 31.714844 33.113281 31.710938 33.109375 L 31.695312 33.125 " fill-opacity="1" fill-rule="nonzero"/></g><g clip-path="url(#7624752436)"><path fill="#ffffff" d="M 31.898438 32.554688 C 32.25 32.425781 32.453125 32.476562 32.492188 32.519531 C 32.535156 32.5625 32.585938 32.757812 32.464844 33.109375 C 32.320312 33.066406 32.050781 32.929688 31.898438 32.554688 " fill-opacity="1" fill-rule="nonzero"/><path fill="#231f20" d="M 31.898438 32.554688 L 31.90625 32.574219 C 32.070312 32.511719 32.203125 32.492188 32.296875 32.492188 C 32.351562 32.492188 32.394531 32.5 32.421875 32.507812 C 32.4375 32.511719 32.453125 32.515625 32.460938 32.519531 C 32.46875 32.527344 32.476562 32.53125 32.480469 32.535156 C 32.484375 32.539062 32.488281 32.542969 32.492188 32.554688 C 32.5 32.570312 32.507812 32.589844 32.511719 32.617188 C 32.515625 32.644531 32.519531 32.679688 32.519531 32.71875 C 32.519531 32.816406 32.503906 32.941406 32.445312 33.105469 L 32.464844 33.109375 L 32.46875 33.09375 C 32.398438 33.070312 32.300781 33.023438 32.195312 32.941406 C 32.09375 32.855469 31.992188 32.734375 31.917969 32.550781 L 31.898438 32.554688 L 31.90625 32.574219 L 31.898438 32.554688 L 31.882812 32.5625 C 31.957031 32.753906 32.066406 32.882812 32.171875 32.972656 C 32.28125 33.058594 32.386719 33.105469 32.457031 33.128906 C 32.46875 33.132812 32.480469 33.128906 32.484375 33.117188 C 32.539062 32.953125 32.558594 32.820312 32.558594 32.71875 C 32.558594 32.664062 32.554688 32.617188 32.542969 32.582031 C 32.539062 32.5625 32.535156 32.546875 32.527344 32.535156 C 32.519531 32.523438 32.515625 32.515625 32.507812 32.507812 C 32.5 32.5 32.488281 32.492188 32.476562 32.484375 C 32.460938 32.476562 32.433594 32.46875 32.40625 32.460938 C 32.375 32.457031 32.339844 32.453125 32.296875 32.453125 C 32.195312 32.453125 32.0625 32.472656 31.894531 32.539062 C 31.886719 32.539062 31.882812 32.542969 31.882812 32.546875 C 31.878906 32.554688 31.878906 32.558594 31.882812 32.5625 L 31.898438 32.554688 " fill-opacity="1" fill-rule="nonzero"/></g><g clip-path="url(#b310753b44)"><path fill="#ffffff" d="M 32.082031 32.921875 C 32.214844 33.058594 32.355469 33.121094 32.449219 33.152344 C 32.386719 33.320312 32.292969 33.492188 32.15625 33.632812 C 31.929688 33.867188 31.652344 34 31.433594 34.074219 L 30.976562 33.605469 C 31.050781 33.382812 31.179688 33.097656 31.40625 32.867188 C 31.539062 32.730469 31.699219 32.636719 31.859375 32.574219 C 31.921875 32.722656 32 32.835938 32.082031 32.921875 " fill-opacity="1" fill-rule="nonzero"/><path fill="#231f20" d="M 32.082031 32.921875 L 32.070312 32.9375 C 32.203125 33.074219 32.347656 33.140625 32.445312 33.171875 L 32.449219 33.152344 L 32.433594 33.144531 C 32.371094 33.3125 32.277344 33.480469 32.140625 33.621094 C 31.917969 33.847656 31.644531 33.980469 31.429688 34.058594 L 31.433594 34.074219 L 31.449219 34.0625 L 30.988281 33.589844 L 30.976562 33.605469 L 30.992188 33.609375 C 31.066406 33.390625 31.195312 33.109375 31.421875 32.882812 C 31.550781 32.746094 31.710938 32.652344 31.867188 32.589844 L 31.859375 32.574219 L 31.839844 32.578125 C 31.902344 32.734375 31.984375 32.847656 32.070312 32.9375 L 32.082031 32.921875 L 32.097656 32.90625 C 32.015625 32.824219 31.9375 32.710938 31.878906 32.566406 C 31.871094 32.554688 31.863281 32.550781 31.851562 32.554688 C 31.691406 32.617188 31.53125 32.714844 31.394531 32.851562 C 31.164062 33.089844 31.03125 33.375 30.957031 33.597656 C 30.953125 33.605469 30.957031 33.613281 30.960938 33.617188 L 31.421875 34.089844 C 31.425781 34.09375 31.433594 34.097656 31.441406 34.09375 C 31.660156 34.019531 31.9375 33.882812 32.167969 33.648438 C 32.308594 33.503906 32.402344 33.328125 32.46875 33.160156 C 32.46875 33.15625 32.46875 33.148438 32.46875 33.144531 C 32.464844 33.140625 32.460938 33.136719 32.457031 33.132812 C 32.363281 33.105469 32.226562 33.039062 32.097656 32.90625 L 32.082031 32.921875 " fill-opacity="1" fill-rule="nonzero"/></g><g clip-path="url(#808df6fc92)"><path fill="#ffffff" d="M 31.398438 34.082031 C 31.371094 34.09375 31.34375 34.105469 31.320312 34.113281 L 30.941406 33.722656 C 30.949219 33.695312 30.957031 33.671875 30.96875 33.644531 L 31.398438 34.082031 " fill-opacity="1" fill-rule="nonzero"/><path fill="#231f20" d="M 31.398438 34.082031 L 31.390625 34.0625 C 31.363281 34.074219 31.339844 34.085938 31.316406 34.09375 L 31.320312 34.113281 L 31.335938 34.097656 L 30.953125 33.707031 L 30.941406 33.722656 L 30.957031 33.726562 C 30.964844 33.703125 30.976562 33.679688 30.988281 33.652344 L 30.96875 33.644531 L 30.957031 33.65625 L 31.382812 34.09375 L 31.398438 34.082031 L 31.390625 34.0625 L 31.398438 34.082031 L 31.410156 34.066406 L 30.984375 33.628906 C 30.980469 33.625 30.972656 33.621094 30.964844 33.625 C 30.960938 33.625 30.953125 33.628906 30.953125 33.636719 C 30.941406 33.664062 30.929688 33.691406 30.921875 33.714844 C 30.917969 33.722656 30.921875 33.730469 30.925781 33.734375 L 31.308594 34.125 C 31.3125 34.132812 31.320312 34.132812 31.328125 34.128906 C 31.351562 34.121094 31.378906 34.113281 31.40625 34.101562 C 31.410156 34.097656 31.414062 34.09375 31.417969 34.085938 C 31.417969 34.078125 31.414062 34.074219 31.410156 34.066406 L 31.398438 34.082031 " fill-opacity="1" fill-rule="nonzero"/><path fill="#ffffff" d="M 31.308594 34.117188 C 31.285156 34.128906 31.25 34.144531 31.242188 34.144531 C 31.191406 34.144531 30.914062 33.863281 30.90625 33.804688 C 30.90625 33.789062 30.921875 33.757812 30.933594 33.734375 L 31.308594 34.117188 " fill-opacity="1" fill-rule="nonzero"/><path fill="#231f20" d="M 31.308594 34.117188 L 31.300781 34.101562 C 31.289062 34.105469 31.273438 34.113281 31.261719 34.117188 C 31.253906 34.121094 31.25 34.121094 31.246094 34.125 C 31.246094 34.125 31.242188 34.125 31.242188 34.125 L 31.238281 34.125 L 31.242188 34.128906 L 31.242188 34.125 L 31.238281 34.125 L 31.242188 34.128906 L 31.242188 34.125 L 31.242188 34.136719 L 31.242188 34.125 L 31.242188 34.136719 L 31.242188 34.125 C 31.242188 34.125 31.242188 34.125 31.238281 34.125 L 31.242188 34.144531 L 31.242188 34.125 L 31.242188 34.128906 L 31.242188 34.125 L 31.242188 34.128906 L 31.242188 34.125 L 31.242188 34.128906 L 31.242188 34.125 L 31.242188 34.128906 L 31.242188 34.125 C 31.242188 34.125 31.238281 34.125 31.234375 34.121094 C 31.226562 34.121094 31.214844 34.113281 31.203125 34.101562 C 31.179688 34.085938 31.152344 34.058594 31.121094 34.03125 C 31.074219 33.988281 31.027344 33.9375 30.988281 33.894531 C 30.96875 33.871094 30.953125 33.851562 30.941406 33.832031 C 30.9375 33.824219 30.933594 33.816406 30.929688 33.8125 C 30.929688 33.808594 30.929688 33.808594 30.925781 33.804688 C 30.925781 33.804688 30.925781 33.800781 30.925781 33.800781 L 30.921875 33.800781 L 30.925781 33.800781 L 30.921875 33.800781 L 30.925781 33.800781 C 30.925781 33.800781 30.925781 33.800781 30.929688 33.796875 C 30.929688 33.789062 30.933594 33.78125 30.9375 33.769531 C 30.941406 33.761719 30.945312 33.753906 30.949219 33.742188 L 30.933594 33.734375 L 30.917969 33.75 L 31.292969 34.132812 L 31.308594 34.117188 L 31.300781 34.101562 L 31.308594 34.117188 L 31.320312 34.105469 L 30.945312 33.722656 C 30.941406 33.71875 30.9375 33.714844 30.929688 33.714844 C 30.921875 33.71875 30.917969 33.722656 30.914062 33.726562 C 30.910156 33.738281 30.90625 33.75 30.898438 33.765625 C 30.894531 33.769531 30.894531 33.777344 30.890625 33.785156 C 30.890625 33.789062 30.886719 33.796875 30.886719 33.800781 C 30.886719 33.804688 30.886719 33.804688 30.886719 33.804688 C 30.886719 33.8125 30.890625 33.820312 30.894531 33.824219 C 30.898438 33.839844 30.90625 33.851562 30.917969 33.867188 C 30.9375 33.894531 30.960938 33.925781 30.992188 33.957031 C 31.035156 34.003906 31.085938 34.054688 31.132812 34.09375 C 31.15625 34.113281 31.175781 34.132812 31.191406 34.144531 C 31.203125 34.148438 31.210938 34.152344 31.214844 34.15625 C 31.21875 34.160156 31.222656 34.160156 31.226562 34.164062 C 31.230469 34.164062 31.234375 34.164062 31.238281 34.164062 L 31.242188 34.164062 L 31.242188 34.148438 L 31.242188 34.164062 L 31.242188 34.148438 L 31.242188 34.164062 L 31.242188 34.160156 L 31.242188 34.164062 L 31.242188 34.160156 L 31.242188 34.164062 C 31.246094 34.164062 31.246094 34.164062 31.25 34.164062 C 31.253906 34.164062 31.261719 34.160156 31.265625 34.160156 C 31.273438 34.15625 31.28125 34.152344 31.289062 34.148438 C 31.300781 34.144531 31.308594 34.140625 31.316406 34.136719 C 31.320312 34.132812 31.324219 34.128906 31.324219 34.121094 C 31.328125 34.117188 31.324219 34.109375 31.320312 34.105469 L 31.308594 34.117188 " fill-opacity="1" fill-rule="nonzero"/></g><g clip-path="url(#9df09f354a)"><path fill="#ffffff" d="M 31.566406 33.054688 C 31.453125 33.167969 31.453125 33.355469 31.566406 33.46875 C 31.679688 33.585938 31.859375 33.585938 31.972656 33.46875 C 32.085938 33.355469 32.085938 33.167969 31.972656 33.054688 C 31.859375 32.9375 31.679688 32.9375 31.566406 33.054688 " fill-opacity="1" fill-rule="nonzero"/><path fill="#231f20" d="M 31.566406 33.054688 L 31.550781 33.039062 C 31.492188 33.101562 31.460938 33.179688 31.460938 33.261719 C 31.460938 33.34375 31.492188 33.421875 31.550781 33.484375 C 31.613281 33.546875 31.691406 33.578125 31.769531 33.578125 C 31.847656 33.578125 31.925781 33.546875 31.988281 33.484375 C 32.046875 33.421875 32.078125 33.34375 32.078125 33.261719 C 32.078125 33.179688 32.046875 33.101562 31.988281 33.039062 C 31.925781 32.976562 31.847656 32.945312 31.769531 32.949219 C 31.691406 32.945312 31.613281 32.976562 31.550781 33.039062 L 31.578125 33.066406 C 31.632812 33.011719 31.699219 32.988281 31.769531 32.988281 C 31.839844 32.988281 31.90625 33.015625 31.960938 33.066406 C 32.011719 33.121094 32.039062 33.191406 32.039062 33.261719 C 32.039062 33.332031 32.011719 33.402344 31.960938 33.457031 C 31.90625 33.511719 31.839844 33.535156 31.769531 33.535156 C 31.699219 33.535156 31.632812 33.507812 31.578125 33.457031 C 31.527344 33.402344 31.5 33.332031 31.5 33.261719 C 31.5 33.191406 31.527344 33.121094 31.578125 33.066406 L 31.566406 33.054688 " fill-opacity="1" fill-rule="nonzero"/><path fill="#ffffff" d="M 31.578125 33.066406 C 31.472656 33.175781 31.472656 33.347656 31.578125 33.457031 C 31.683594 33.566406 31.855469 33.566406 31.960938 33.457031 C 32.066406 33.347656 32.066406 33.175781 31.960938 33.066406 C 31.855469 32.957031 31.683594 32.957031 31.578125 33.066406 Z M 31.554688 33.039062 C 31.671875 32.917969 31.867188 32.917969 31.984375 33.039062 C 32.105469 33.164062 32.105469 33.359375 31.984375 33.484375 C 31.867188 33.605469 31.671875 33.605469 31.554688 33.484375 C 31.433594 33.359375 31.433594 33.164062 31.554688 33.039062 " fill-opacity="1" fill-rule="nonzero"/><path fill="#231f20" d="M 31.578125 33.066406 L 31.566406 33.050781 C 31.507812 33.109375 31.480469 33.1875 31.480469 33.261719 C 31.480469 33.335938 31.507812 33.414062 31.566406 33.472656 C 31.621094 33.527344 31.695312 33.558594 31.769531 33.558594 C 31.84375 33.558594 31.917969 33.527344 31.972656 33.472656 C 32.03125 33.414062 32.058594 33.335938 32.058594 33.261719 C 32.058594 33.1875 32.03125 33.109375 31.972656 33.050781 C 31.917969 32.996094 31.84375 32.964844 31.769531 32.964844 C 31.695312 32.964844 31.621094 32.996094 31.566406 33.050781 L 31.578125 33.066406 L 31.59375 33.082031 C 31.640625 33.03125 31.707031 33.003906 31.769531 33.003906 C 31.832031 33.003906 31.898438 33.03125 31.945312 33.082031 C 31.996094 33.128906 32.019531 33.195312 32.019531 33.261719 C 32.019531 33.328125 31.996094 33.394531 31.945312 33.441406 C 31.898438 33.492188 31.835938 33.519531 31.769531 33.519531 C 31.707031 33.519531 31.640625 33.492188 31.59375 33.441406 C 31.542969 33.394531 31.519531 33.328125 31.519531 33.261719 C 31.519531 33.195312 31.542969 33.128906 31.59375 33.082031 Z M 31.554688 33.039062 L 31.566406 33.054688 C 31.621094 32.996094 31.695312 32.96875 31.769531 32.96875 C 31.84375 32.96875 31.917969 32.996094 31.972656 33.054688 C 32.027344 33.113281 32.054688 33.1875 32.054688 33.261719 C 32.054688 33.335938 32.027344 33.410156 31.972656 33.46875 C 31.917969 33.527344 31.84375 33.554688 31.769531 33.554688 C 31.695312 33.554688 31.625 33.527344 31.566406 33.46875 C 31.511719 33.410156 31.484375 33.335938 31.484375 33.261719 C 31.484375 33.1875 31.511719 33.113281 31.566406 33.054688 L 31.554688 33.039062 L 31.539062 33.027344 C 31.476562 33.089844 31.445312 33.175781 31.445312 33.261719 C 31.445312 33.347656 31.476562 33.433594 31.539062 33.496094 C 31.601562 33.5625 31.6875 33.59375 31.769531 33.59375 C 31.851562 33.59375 31.9375 33.5625 32 33.496094 C 32.0625 33.433594 32.09375 33.347656 32.09375 33.261719 C 32.09375 33.175781 32.0625 33.089844 32 33.027344 C 31.9375 32.960938 31.851562 32.929688 31.769531 32.929688 C 31.6875 32.929688 31.601562 32.960938 31.539062 33.027344 L 31.554688 33.039062 " fill-opacity="1" fill-rule="nonzero"/></g><g clip-path="url(#31848b383f)"><g clip-path="url(#20f6c0000d)"><g clip-path="url(#93a74c09ff)"><path fill="#231f20" d="M 30.113281 47.777344 L 28.402344 45.8125 C 28.34375 45.742188 28.292969 45.746094 28.253906 45.835938 C 27.152344 48.257812 25.628906 50.371094 23.683594 52.1875 L 23.683594 52.191406 C 23.664062 52.210938 23.667969 52.246094 23.691406 52.265625 C 23.703125 52.277344 23.726562 52.28125 23.742188 52.277344 C 26.144531 51.207031 28.261719 49.734375 30.113281 47.851562 C 30.132812 47.828125 30.132812 47.796875 30.109375 47.777344 Z M 36.128906 45.878906 C 36.914062 47.023438 37.539062 48.238281 38.011719 49.53125 C 38.011719 49.539062 38.019531 49.546875 38.023438 49.550781 C 38.042969 49.566406 38.070312 49.558594 38.078125 49.542969 C 38.085938 49.535156 38.09375 49.527344 38.089844 49.519531 C 38.089844 48.011719 37.605469 46.609375 36.347656 45.710938 C 36.28125 45.65625 36.179688 45.671875 36.121094 45.730469 C 36.109375 45.746094 36.097656 45.769531 36.089844 45.789062 C 36.085938 45.804688 36.09375 45.839844 36.128906 45.878906 Z M 30.042969 39.648438 C 28.675781 40.894531 26.835938 41.285156 25.390625 42.433594 C 25.378906 42.441406 25.375 42.457031 25.378906 42.46875 C 25.394531 42.480469 25.398438 42.496094 25.40625 42.511719 C 25.429688 42.535156 25.449219 42.542969 25.476562 42.527344 C 26.238281 42.007812 27.082031 41.726562 27.996094 41.691406 C 28.117188 41.6875 28.222656 41.632812 28.304688 41.542969 C 28.847656 40.890625 29.433594 40.277344 30.074219 39.714844 C 30.089844 39.699219 30.09375 39.691406 30.09375 39.683594 C 30.082031 39.675781 30.074219 39.660156 30.070312 39.652344 C 30.0625 39.636719 30.058594 39.636719 30.042969 39.644531 Z M 26.316406 35.679688 C 25.410156 34.222656 23.574219 33.800781 21.933594 33.699219 C 21.933594 33.699219 21.921875 33.703125 21.917969 33.707031 C 21.910156 33.714844 21.914062 33.730469 21.921875 33.738281 L 21.925781 33.738281 C 23.386719 34.335938 24.785156 35.027344 26.132812 35.804688 C 26.160156 35.824219 26.1875 35.832031 26.210938 35.828125 C 26.253906 35.832031 26.28125 35.820312 26.292969 35.796875 C 26.324219 35.746094 26.332031 35.691406 26.316406 35.679688 Z M 37.855469 44.402344 L 39.921875 49.550781 L 39.933594 49.5625 C 39.949219 49.574219 39.96875 49.574219 39.984375 49.558594 C 39.988281 49.550781 39.992188 49.542969 39.988281 49.53125 L 38.484375 43.929688 C 38.46875 43.863281 38.4375 43.855469 38.386719 43.898438 L 37.875 44.320312 C 37.84375 44.339844 37.835938 44.371094 37.855469 44.402344 Z M 32.324219 36.960938 C 28.261719 38.261719 23.835938 39.628906 21.992188 43.90625 L 21.992188 43.914062 L 22.007812 43.96875 C 22.015625 43.996094 22.027344 44 22.046875 43.96875 C 23.5625 41.640625 25.601562 39.9375 28.15625 38.886719 C 29.546875 38.3125 31.050781 37.769531 32.355469 37.03125 C 32.363281 37.027344 32.371094 37.027344 32.371094 37.027344 C 32.386719 37.007812 32.382812 36.984375 32.363281 36.96875 C 32.351562 36.960938 32.339844 36.960938 32.324219 36.960938 Z M 28.136719 33.609375 L 28.625 33.117188 L 28.640625 33.097656 C 28.664062 33.058594 28.644531 33.011719 28.605469 32.988281 C 28.605469 32.988281 28.59375 32.984375 28.585938 32.976562 L 22.421875 31.589844 C 22.390625 31.582031 22.371094 31.597656 22.363281 31.625 C 22.351562 31.648438 22.359375 31.660156 22.375 31.664062 C 24.257812 32.304688 26.121094 32.960938 27.960938 33.648438 C 28.023438 33.671875 28.097656 33.660156 28.140625 33.605469 L 28.140625 33.609375 Z M 48.472656 34.921875 C 47.714844 35.59375 47.039062 36.171875 46.625 37.109375 C 46.21875 38.027344 45.902344 38.980469 45.695312 39.972656 C 44.898438 43.628906 44.257812 47.371094 42.03125 50.496094 C 40.769531 52.265625 39.25 53.796875 37.476562 55.089844 C 37.460938 55.097656 37.464844 55.105469 37.472656 55.117188 L 37.476562 55.125 C 37.492188 55.136719 37.507812 55.132812 37.539062 55.125 C 37.78125 54.996094 37.96875 54.890625 38.082031 54.808594 C 41.394531 52.472656 43.804688 49.441406 45.328125 45.703125 C 46.75 42.222656 47.617188 38.542969 48.511719 34.945312 C 48.527344 34.890625 48.511719 34.882812 48.472656 34.921875 Z M 37.183594 23.539062 C 34.082031 24.179688 31.015625 24.734375 27.9375 25.714844 C 23.042969 27.273438 19.324219 30.566406 16.679688 34.996094 C 16.671875 35.007812 16.671875 35.015625 16.667969 35.023438 C 16.671875 35.042969 16.675781 35.058594 16.6875 35.066406 C 16.707031 35.078125 16.71875 35.078125 16.730469 35.0625 C 17.496094 34.027344 18.320312 33.050781 19.203125 32.113281 C 21.933594 29.25 25.3125 27.746094 29.113281 26.929688 C 31.707031 26.375 33.628906 26.148438 35.601562 25.078125 C 36.296875 24.703125 36.820312 24.140625 37.347656 23.566406 C 37.363281 23.546875 37.359375 23.515625 37.339844 23.496094 C 37.324219 23.480469 37.300781 23.476562 37.28125 23.488281 C 37.257812 23.503906 37.238281 23.511719 37.222656 23.523438 C 37.207031 23.53125 37.195312 23.539062 37.183594 23.539062 Z M 55.414062 22.640625 C 53.578125 23.503906 52.035156 24.855469 50.675781 26.347656 C 48.609375 28.601562 46.574219 30.882812 44.320312 32.949219 C 40.96875 36.019531 37.199219 38.5 34.789062 42.480469 C 34.777344 42.492188 34.777344 42.507812 34.777344 42.507812 C 34.785156 42.519531 34.796875 42.53125 34.8125 42.535156 C 34.828125 42.550781 34.847656 42.546875 34.863281 42.53125 C 36.285156 40.820312 37.59375 39.449219 38.800781 38.410156 C 42.4375 35.269531 45.046875 33.101562 47.890625 30.015625 C 50.289062 27.40625 52.617188 24.683594 55.5625 22.660156 C 55.574219 22.652344 55.578125 22.644531 55.566406 22.628906 L 55.53125 22.601562 C 55.515625 22.585938 55.503906 22.589844 55.488281 22.597656 C 55.464844 22.617188 55.441406 22.625 55.414062 22.640625 Z M 57.351562 16.886719 L 57.476562 17.007812 C 57.496094 17.023438 57.515625 17.015625 57.53125 17 L 57.546875 16.988281 L 57.546875 16.984375 C 59.882812 14.453125 61.738281 12.359375 61.6875 12.3125 L 61.679688 12.304688 C 61.628906 12.28125 59.691406 14.292969 57.367188 16.816406 L 57.34375 16.835938 C 57.332031 16.851562 57.335938 16.875 57.351562 16.886719 Z M 60.824219 9.511719 C 57.71875 10.363281 54.816406 11.671875 52.121094 13.453125 C 52.070312 13.480469 52.066406 13.519531 52.125 13.558594 C 53.855469 14.640625 54.851562 15.621094 56.203125 16.773438 C 56.25 16.804688 56.289062 16.808594 56.339844 16.777344 C 59.191406 14.464844 61.585938 11.75 63.871094 8.894531 C 63.875 8.890625 63.878906 8.882812 63.878906 8.875 C 63.894531 8.839844 63.878906 8.800781 63.84375 8.789062 C 63.832031 8.785156 63.824219 8.785156 63.820312 8.78125 C 57.816406 8.769531 52.445312 11.636719 47.988281 15.453125 C 39.707031 22.5625 32.398438 30.742188 25.140625 38.863281 L 25.140625 38.867188 C 25.128906 38.878906 25.125 38.894531 25.136719 38.90625 C 25.148438 38.914062 25.164062 38.914062 25.175781 38.90625 C 27.9375 37.203125 31.191406 36.304688 34.296875 35.433594 C 34.382812 35.410156 34.472656 35.433594 34.539062 35.492188 C 34.632812 35.578125 34.652344 35.714844 34.59375 35.820312 C 34.507812 35.960938 34.394531 36.109375 34.246094 36.261719 C 32.582031 38.085938 30.910156 39.910156 29.238281 41.730469 C 29.199219 41.777344 29.203125 41.816406 29.242188 41.855469 C 30.5625 43.015625 31.914062 44.308594 32.808594 45.839844 C 32.820312 45.863281 32.84375 45.875 32.863281 45.875 C 32.90625 45.875 32.917969 45.855469 32.898438 45.820312 C 32.320312 44.695312 31.578125 43.695312 30.667969 42.820312 C 30.628906 42.785156 30.628906 42.726562 30.660156 42.691406 L 30.660156 42.6875 C 33.078125 40.097656 35.5625 37.578125 38.125 35.121094 C 40.527344 32.808594 43.074219 30.628906 45.578125 28.421875 C 46.226562 27.851562 47.050781 26.976562 47.785156 26.125 C 49.691406 23.921875 51.78125 21.804688 54.480469 20.625 C 54.550781 20.597656 54.628906 20.613281 54.679688 20.664062 C 55.527344 21.535156 56.25 22.5 56.859375 23.570312 C 56.863281 23.582031 56.882812 23.585938 56.90625 23.574219 C 56.933594 23.566406 56.941406 23.539062 56.925781 23.511719 C 55.480469 20.203125 52.3125 17.363281 49.363281 15.46875 C 49.25 15.390625 49.132812 15.347656 49.023438 15.328125 C 49.011719 15.328125 49 15.324219 48.992188 15.316406 C 48.960938 15.292969 48.957031 15.25 48.984375 15.222656 C 48.988281 15.21875 48.992188 15.214844 49 15.214844 C 49.582031 14.773438 50.15625 14.332031 50.726562 13.902344 C 51.019531 13.671875 51.09375 13.796875 51.347656 13.964844 C 54.363281 15.972656 56.890625 18.5 58.921875 21.550781 L 58.925781 21.554688 C 58.9375 21.5625 58.957031 21.5625 58.96875 21.550781 C 58.972656 21.542969 58.976562 21.535156 58.972656 21.523438 C 57.605469 18.195312 54.457031 15.351562 51.484375 13.480469 C 51.4375 13.449219 51.4375 13.417969 51.480469 13.386719 C 54.050781 11.613281 57.699219 9.804688 60.816406 9.457031 C 60.824219 9.457031 60.835938 9.460938 60.835938 9.460938 C 60.847656 9.472656 60.847656 9.492188 60.835938 9.503906 C 60.835938 9.503906 60.832031 9.511719 60.824219 9.511719 Z M 25.101562 37.027344 C 23.464844 36.148438 21.457031 35.328125 19.566406 35.519531 C 17.734375 35.699219 15.792969 36.863281 14.355469 38.0625 C 14.292969 38.109375 14.277344 38.097656 14.300781 38.027344 C 16.132812 32.304688 19.691406 28.113281 24.980469 25.460938 C 26.820312 24.535156 28.867188 23.925781 31.078125 23.417969 C 33.707031 22.820312 36.351562 22.296875 39.011719 21.863281 C 39.0625 21.851562 39.109375 21.824219 39.148438 21.789062 C 40.902344 20.011719 42.824219 18.183594 44.902344 16.296875 C 50.402344 11.304688 57.117188 6.546875 65 7.617188 C 65.0625 7.625 65.085938 7.65625 65.101562 7.707031 C 66.125 13.429688 63.023438 19.582031 59.4375 23.820312 C 56.621094 27.152344 53.558594 30.140625 50.421875 33.082031 C 50.382812 33.117188 50.355469 33.160156 50.347656 33.214844 C 49.578125 37.183594 48.746094 41.261719 47.421875 45.085938 C 45.296875 51.234375 40.652344 55.5 34.652344 57.816406 C 34.605469 57.832031 34.59375 57.824219 34.628906 57.78125 C 36.132812 55.605469 37.390625 52.953125 36.667969 50.226562 C 36.351562 49.015625 35.894531 47.828125 35.296875 46.667969 C 35.289062 46.652344 35.285156 46.644531 35.277344 46.632812 C 35.230469 46.59375 35.167969 46.59375 35.121094 46.632812 C 34.605469 47.0625 34.070312 47.492188 33.519531 47.910156 C 33.441406 47.976562 33.402344 48.054688 33.402344 48.164062 C 33.460938 49.886719 31.410156 50.394531 30.761719 48.765625 C 30.757812 48.753906 30.753906 48.75 30.746094 48.746094 C 30.71875 48.722656 30.683594 48.722656 30.664062 48.746094 C 30.660156 48.753906 30.65625 48.761719 30.648438 48.769531 C 29.777344 52.167969 27.960938 54.847656 26.726562 57.84375 C 26.707031 57.894531 26.679688 57.925781 26.632812 57.949219 C 24.699219 58.992188 22.664062 59.773438 20.527344 60.28125 C 19.585938 60.507812 19.5625 60.4375 20.460938 60.074219 C 22.585938 59.21875 24.511719 57.453125 25.113281 55.179688 C 25.113281 55.171875 25.117188 55.167969 25.117188 55.167969 C 25.132812 55.152344 25.160156 55.152344 25.175781 55.167969 C 25.175781 55.167969 25.183594 55.179688 25.1875 55.191406 C 25.179688 56.183594 24.957031 57.117188 24.503906 58 C 24.492188 58.015625 24.496094 58.039062 24.511719 58.054688 C 24.527344 58.066406 24.542969 58.070312 24.558594 58.0625 C 25.269531 57.746094 25.808594 57.378906 26.183594 56.644531 C 27.375 54.347656 28.644531 52.132812 29.492188 49.710938 C 29.5 49.691406 29.492188 49.675781 29.480469 49.660156 C 29.457031 49.640625 29.429688 49.644531 29.414062 49.660156 C 27.015625 51.890625 24.277344 53.546875 20.972656 53.929688 C 20.953125 53.933594 20.933594 53.925781 20.917969 53.914062 C 20.894531 53.890625 20.890625 53.839844 20.914062 53.816406 L 20.921875 53.804688 C 23.671875 51.421875 26.082031 48.488281 27.566406 45.128906 C 27.597656 45.0625 27.582031 44.980469 27.519531 44.925781 C 27.179688 44.617188 26.800781 44.089844 26.257812 44.238281 C 23.804688 44.894531 21.597656 46.949219 19.949219 48.824219 C 19.921875 48.855469 19.875 48.855469 19.847656 48.828125 C 19.835938 48.820312 19.824219 48.804688 19.820312 48.785156 C 19.566406 46.871094 19.886719 45.339844 20.695312 43.589844 C 20.707031 43.570312 20.699219 43.550781 20.683594 43.539062 C 20.667969 43.523438 20.644531 43.523438 20.625 43.539062 C 19.046875 44.710938 17.367188 45.722656 15.585938 46.554688 C 15.585938 46.554688 15.574219 46.5625 15.570312 46.566406 C 15.558594 46.582031 15.554688 46.605469 15.574219 46.625 C 15.582031 46.628906 15.589844 46.632812 15.589844 46.632812 L 16.25 46.679688 C 16.355469 46.683594 16.371094 46.726562 16.289062 46.804688 C 15.777344 47.253906 15.164062 47.675781 14.761719 48.152344 C 14.269531 48.726562 13.863281 49.363281 13.550781 50.054688 C 13.542969 50.066406 13.546875 50.078125 13.558594 50.085938 C 13.570312 50.097656 13.585938 50.101562 13.597656 50.089844 C 15.210938 48.695312 17.460938 47.683594 19.320312 46.859375 C 19.683594 46.703125 19.714844 46.75 19.414062 47.007812 C 18.261719 47.96875 17.207031 49.023438 16.234375 50.167969 C 16.21875 50.1875 16.222656 50.214844 16.246094 50.234375 C 16.253906 50.246094 16.273438 50.253906 16.289062 50.242188 C 16.867188 50.058594 17.457031 49.945312 18.066406 49.90625 C 18.074219 49.902344 18.078125 49.910156 18.078125 49.910156 L 15.230469 53.605469 C 15.199219 53.644531 15.207031 53.65625 15.257812 53.644531 C 17.589844 52.847656 16.832031 54.707031 16.246094 55.855469 C 15.289062 57.726562 14.148438 59.472656 12.828125 61.089844 C 12.8125 61.109375 12.8125 61.136719 12.835938 61.15625 C 12.851562 61.167969 12.875 61.171875 12.890625 61.152344 C 13.945312 60.371094 17.15625 57.980469 18.421875 58.113281 C 18.472656 58.117188 18.515625 58.101562 18.550781 58.078125 L 23.65625 54.695312 C 23.679688 54.683594 23.707031 54.679688 23.726562 54.699219 C 23.746094 54.714844 23.746094 54.734375 23.742188 54.75 C 23.269531 56.816406 22.050781 58.261719 20.097656 59.082031 C 20.085938 59.085938 20.074219 59.085938 20.0625 59.078125 C 20.050781 59.066406 20.046875 59.050781 20.058594 59.035156 L 20.066406 59.035156 C 20.816406 58.472656 21.375 57.765625 21.734375 56.90625 C 21.773438 56.824219 21.75 56.800781 21.667969 56.839844 C 20.710938 57.292969 19.800781 58.179688 18.980469 58.84375 C 17.886719 59.722656 16.957031 60.308594 15.785156 60.855469 C 15.773438 60.863281 15.765625 60.863281 15.765625 60.863281 C 15.742188 60.855469 15.730469 60.835938 15.734375 60.820312 L 15.75 60.800781 C 16.257812 60.421875 16.703125 59.972656 17.074219 59.449219 C 17.085938 59.441406 17.085938 59.433594 17.085938 59.421875 C 17.09375 59.386719 17.066406 59.359375 17.027344 59.355469 C 17.019531 59.355469 17.011719 59.355469 17 59.359375 C 16.617188 59.558594 16.238281 59.777344 15.859375 60.027344 C 13.882812 61.335938 11.90625 62.65625 9.925781 63.984375 C 9.921875 63.988281 9.90625 63.988281 9.898438 63.980469 C 9.890625 63.976562 9.886719 63.957031 9.890625 63.949219 C 11.941406 61.253906 13.855469 58.605469 15.355469 55.550781 C 15.507812 55.238281 15.632812 54.929688 15.714844 54.640625 C 15.734375 54.582031 15.71875 54.527344 15.675781 54.488281 C 15.628906 54.445312 15.5625 54.4375 15.511719 54.464844 C 14.085938 55.101562 13.011719 56.308594 12.230469 57.542969 C 12.054688 57.824219 12.019531 57.804688 12.117188 57.496094 C 12.617188 55.929688 13.269531 54.15625 14.289062 52.859375 C 14.710938 52.328125 15.171875 51.828125 15.675781 51.359375 L 15.683594 51.359375 C 15.707031 51.332031 15.703125 51.28125 15.675781 51.257812 C 15.652344 51.238281 15.625 51.230469 15.597656 51.246094 L 14.082031 51.992188 C 14.023438 52.019531 14.015625 52.003906 14.050781 51.953125 C 14.378906 51.460938 14.683594 50.953125 14.972656 50.433594 C 15.21875 49.980469 15.132812 49.914062 14.722656 50.222656 C 13.664062 51.023438 12.792969 51.996094 12.101562 53.144531 C 12.007812 53.300781 11.972656 53.289062 12 53.105469 C 12.355469 50.773438 13.058594 48.808594 13.765625 46.621094 C 13.792969 46.546875 13.832031 46.476562 13.886719 46.414062 C 13.945312 46.347656 14.015625 46.296875 14.097656 46.265625 C 16.566406 45.210938 18.933594 43.675781 21.082031 42.082031 C 21.242188 41.972656 21.566406 41.632812 22.066406 41.085938 C 22.097656 41.050781 22.109375 41.003906 22.105469 40.949219 C 22.054688 40.742188 21.929688 40.515625 21.9375 40.308594 C 21.976562 39.257812 22.535156 38.753906 23.609375 38.789062 C 23.671875 38.796875 23.71875 38.769531 23.761719 38.722656 L 25.121094 37.132812 C 25.15625 37.09375 25.152344 37.058594 25.101562 37.027344 Z M 25.101562 37.027344 " fill-opacity="1" fill-rule="evenodd"/></g></g></g></svg>