<svg width="64" height="16" viewBox="0 0 64 16" fill="none" xmlns="http://www.w3.org/2000/svg">
<path d="M6.5 7.35999H4.66V15.68H1.24V7.35999H3.68059e-06V4.51999H1.24V4.19999C1.24 2.82666 1.63334 1.78666 2.42 1.07999C3.20667 0.359992 4.36 -8.10623e-06 5.88 -8.10623e-06C6.13334 -8.10623e-06 6.32 0.00665847 6.44 0.0199916V2.91999C5.78667 2.87999 5.32667 2.97333 5.06 3.19999C4.79334 3.42666 4.66 3.83333 4.66 4.41999V4.51999H6.5V7.35999ZM11.527 0.879992V15.68H8.10703V0.879992H11.527ZM19.0855 15.84C17.9921 15.84 17.0055 15.6067 16.1255 15.14C15.2588 14.6733 14.5721 14.0067 14.0655 13.14C13.5721 12.2733 13.3255 11.26 13.3255 10.1C13.3255 8.95333 13.5788 7.94666 14.0855 7.07999C14.5921 6.19999 15.2855 5.52666 16.1655 5.05999C17.0455 4.59333 18.0321 4.35999 19.1255 4.35999C20.2188 4.35999 21.2055 4.59333 22.0855 5.05999C22.9655 5.52666 23.6588 6.19999 24.1655 7.07999C24.6721 7.94666 24.9255 8.95333 24.9255 10.1C24.9255 11.2467 24.6655 12.26 24.1455 13.14C23.6388 14.0067 22.9388 14.6733 22.0455 15.14C21.1655 15.6067 20.1788 15.84 19.0855 15.84ZM19.0855 12.88C19.7388 12.88 20.2921 12.64 20.7455 12.16C21.2121 11.68 21.4455 10.9933 21.4455 10.1C21.4455 9.20666 21.2188 8.51999 20.7655 8.03999C20.3255 7.55999 19.7788 7.31999 19.1255 7.31999C18.4588 7.31999 17.9055 7.55999 17.4655 8.03999C17.0255 8.50666 16.8055 9.19333 16.8055 10.1C16.8055 10.9933 17.0188 11.68 17.4455 12.16C17.8855 12.64 18.4321 12.88 19.0855 12.88ZM26.0598 10.08C26.0598 8.93333 26.2732 7.92666 26.6998 7.05999C27.1398 6.19333 27.7332 5.52666 28.4798 5.05999C29.2265 4.59333 30.0598 4.35999 30.9798 4.35999C31.7132 4.35999 32.3798 4.51333 32.9798 4.81999C33.5932 5.12666 34.0732 5.53999 34.4198 6.05999V0.879992H37.8398V15.68H34.4198V14.08C34.0998 14.6133 33.6398 15.04 33.0398 15.36C32.4532 15.68 31.7665 15.84 30.9798 15.84C30.0598 15.84 29.2265 15.6067 28.4798 15.14C27.7332 14.66 27.1398 13.9867 26.6998 13.12C26.2732 12.24 26.0598 11.2267 26.0598 10.08ZM34.4198 10.1C34.4198 9.24666 34.1798 8.57333 33.6998 8.07999C33.2332 7.58666 32.6598 7.33999 31.9798 7.33999C31.2998 7.33999 30.7198 7.58666 30.2398 8.07999C29.7732 8.55999 29.5398 9.22666 29.5398 10.08C29.5398 10.9333 29.7732 11.6133 30.2398 12.12C30.7198 12.6133 31.2998 12.86 31.9798 12.86C32.6598 12.86 33.2332 12.6133 33.6998 12.12C34.1798 11.6267 34.4198 10.9533 34.4198 10.1ZM45.3941 15.84C44.3007 15.84 43.3141 15.6067 42.4341 15.14C41.5674 14.6733 40.8807 14.0067 40.3741 13.14C39.8807 12.2733 39.6341 11.26 39.6341 10.1C39.6341 8.95333 39.8874 7.94666 40.3941 7.07999C40.9007 6.19999 41.5941 5.52666 42.4741 5.05999C43.3541 4.59333 44.3407 4.35999 45.4341 4.35999C46.5274 4.35999 47.5141 4.59333 48.3941 5.05999C49.2741 5.52666 49.9674 6.19999 50.4741 7.07999C50.9807 7.94666 51.2341 8.95333 51.2341 10.1C51.2341 11.2467 50.9741 12.26 50.4541 13.14C49.9474 14.0067 49.2474 14.6733 48.3541 15.14C47.4741 15.6067 46.4874 15.84 45.3941 15.84ZM45.3941 12.88C46.0474 12.88 46.6007 12.64 47.0541 12.16C47.5207 11.68 47.7541 10.9933 47.7541 10.1C47.7541 9.20666 47.5274 8.51999 47.0741 8.03999C46.6341 7.55999 46.0874 7.31999 45.4341 7.31999C44.7674 7.31999 44.2141 7.55999 43.7741 8.03999C43.3341 8.50666 43.1141 9.19333 43.1141 10.1C43.1141 10.9933 43.3274 11.68 43.7541 12.16C44.1941 12.64 44.7407 12.88 45.3941 12.88ZM52.3684 10.1C52.3684 8.93999 52.6018 7.92666 53.0684 7.05999C53.5484 6.19333 54.2084 5.52666 55.0484 5.05999C55.9018 4.59333 56.8751 4.35999 57.9684 4.35999C59.3684 4.35999 60.5351 4.72666 61.4684 5.45999C62.4151 6.19333 63.0351 7.22666 63.3284 8.55999H59.6884C59.3818 7.70666 58.7884 7.27999 57.9084 7.27999C57.2818 7.27999 56.7818 7.52666 56.4084 8.01999C56.0351 8.49999 55.8484 9.19333 55.8484 10.1C55.8484 11.0067 56.0351 11.7067 56.4084 12.2C56.7818 12.68 57.2818 12.92 57.9084 12.92C58.7884 12.92 59.3818 12.4933 59.6884 11.64H63.3284C63.0351 12.9467 62.4151 13.9733 61.4684 14.72C60.5218 15.4667 59.3551 15.84 57.9684 15.84C56.8751 15.84 55.9018 15.6067 55.0484 15.14C54.2084 14.6733 53.5484 14.0067 53.0684 13.14C52.6018 12.2733 52.3684 11.26 52.3684 10.1Z" fill="#111111"/>
</svg>
